# xmcd
#
# Track frame offsets:
#	150
#	20199
#	34471
#	51276
#	69521
#	85237
#	97783
#	108981
#	130609
#	146540
#	160235
#	172977
#	187836
#	201153
#	214938
#	227981
#
# Disc length: 3308 seconds
#
# Revision: 1
# Processed by: cddbd v1.5.2PL0 Copyright (c) Steve Scherf et al.
# Submitted via: audiograbber 1.83.01
#
DISCID=dd0cea10
DTITLE=anni 60-70 - I Grandi Artisti vol.4
DYEAR=2006
DGENRE=Oldies
TTITLE0=Drupi - Vado via
TTITLE1=Don Backy - L´amore
TTITLE2=Dino - Te lo leggo negli occhi
TTITLE3=Gianni Bella - Non si puó morire dentro
TTITLE4=Gino santercole - Questo vecchio pazzo mondo
TTITLE5=Giorgio Gaber - Torpedo blú
TTITLE6=Maurizio Vandelli - Io ho in mente te
TTITLE7=Pupo - Un amore grande
TTITLE8=Alberto Camerini - Tanz bambolina
TTITLE9=Fiametta - Little mann
TTITLE10=Wess - I miei giorni felici
TTITLE11=Mino Reitano - Meglio una sera piangere da solo
TTITLE12=Little Tony - Riderá
TTITLE13=Dino - Gli occhi miei
TTITLE14=Bobby Solo - Domenica d´agosto
TTITLE15=Paolo Mengoli - Perché l´hai fatto
EXTD=
EXTT0=
EXTT1=
EXTT2=
EXTT3=
EXTT4=
EXTT5=
EXTT6=
EXTT7=
EXTT8=
EXTT9=
EXTT10=
EXTT11=
EXTT12=
EXTT13=
EXTT14=
EXTT15=
PLAYORDER=
